<mxfile host="app.diagrams.net" modified="2022-06-24T05:02:51.044Z" agent="5.0 (Windows NT 10.0; Win64; x64) AppleWebKit/537.36 (KHTML, like Gecko) Chrome/102.0.0.0 Safari/537.36" etag="G3H858o-Sp9lZX5k49Zc" version="20.0.3" type="github">
  <diagram id="C5RBs43oDa-KdzZeNtuy" name="Page-1">
    <mxGraphModel dx="1145" dy="635" grid="1" gridSize="10" guides="1" tooltips="1" connect="1" arrows="1" fold="1" page="1" pageScale="1" pageWidth="827" pageHeight="1169" math="0" shadow="0">
      <root>
        <mxCell id="WIyWlLk6GJQsqaUBKTNV-0" />
        <mxCell id="WIyWlLk6GJQsqaUBKTNV-1" parent="WIyWlLk6GJQsqaUBKTNV-0" />
        <mxCell id="i_EI2Xxlt41yadYSQ0XA-0" value="-" style="ellipse;whiteSpace=wrap;html=1;fillColor=#dae8fc;strokeColor=#6c8ebf;" vertex="1" parent="WIyWlLk6GJQsqaUBKTNV-1">
          <mxGeometry x="60" y="270" width="130" height="130" as="geometry" />
        </mxCell>
        <mxCell id="i_EI2Xxlt41yadYSQ0XA-1" value="UI&lt;br&gt;(react)" style="text;html=1;resizable=0;autosize=1;align=center;verticalAlign=middle;points=[];fillColor=none;strokeColor=none;rounded=0;" vertex="1" parent="WIyWlLk6GJQsqaUBKTNV-1">
          <mxGeometry x="95" y="315" width="60" height="40" as="geometry" />
        </mxCell>
        <mxCell id="i_EI2Xxlt41yadYSQ0XA-5" value="" style="endArrow=classic;html=1;rounded=0;" edge="1" parent="WIyWlLk6GJQsqaUBKTNV-1">
          <mxGeometry width="50" height="50" relative="1" as="geometry">
            <mxPoint x="124.57999999999998" y="480" as="sourcePoint" />
            <mxPoint x="124.57999999999998" y="410" as="targetPoint" />
          </mxGeometry>
        </mxCell>
        <mxCell id="i_EI2Xxlt41yadYSQ0XA-6" value="User" style="text;html=1;resizable=0;autosize=1;align=center;verticalAlign=middle;points=[];fillColor=none;strokeColor=none;rounded=0;" vertex="1" parent="WIyWlLk6GJQsqaUBKTNV-1">
          <mxGeometry x="100" y="480" width="50" height="30" as="geometry" />
        </mxCell>
        <mxCell id="i_EI2Xxlt41yadYSQ0XA-8" value="" style="endArrow=classic;html=1;rounded=0;" edge="1" parent="WIyWlLk6GJQsqaUBKTNV-1">
          <mxGeometry width="50" height="50" relative="1" as="geometry">
            <mxPoint x="200" y="334.58" as="sourcePoint" />
            <mxPoint x="260" y="335" as="targetPoint" />
          </mxGeometry>
        </mxCell>
        <mxCell id="i_EI2Xxlt41yadYSQ0XA-10" value="" style="endArrow=none;html=1;rounded=0;" edge="1" parent="WIyWlLk6GJQsqaUBKTNV-1">
          <mxGeometry width="50" height="50" relative="1" as="geometry">
            <mxPoint x="260" y="450" as="sourcePoint" />
            <mxPoint x="260" y="240" as="targetPoint" />
          </mxGeometry>
        </mxCell>
        <mxCell id="i_EI2Xxlt41yadYSQ0XA-11" value="" style="endArrow=none;html=1;rounded=0;" edge="1" parent="WIyWlLk6GJQsqaUBKTNV-1">
          <mxGeometry width="50" height="50" relative="1" as="geometry">
            <mxPoint x="260" y="240" as="sourcePoint" />
            <mxPoint x="330" y="240" as="targetPoint" />
          </mxGeometry>
        </mxCell>
        <mxCell id="i_EI2Xxlt41yadYSQ0XA-12" value="" style="endArrow=none;html=1;rounded=0;" edge="1" parent="WIyWlLk6GJQsqaUBKTNV-1">
          <mxGeometry width="50" height="50" relative="1" as="geometry">
            <mxPoint x="260" y="284.58" as="sourcePoint" />
            <mxPoint x="330" y="284.58" as="targetPoint" />
          </mxGeometry>
        </mxCell>
        <mxCell id="i_EI2Xxlt41yadYSQ0XA-13" value="" style="endArrow=none;html=1;rounded=0;" edge="1" parent="WIyWlLk6GJQsqaUBKTNV-1">
          <mxGeometry width="50" height="50" relative="1" as="geometry">
            <mxPoint x="260" y="404.58" as="sourcePoint" />
            <mxPoint x="330" y="404.58" as="targetPoint" />
          </mxGeometry>
        </mxCell>
        <mxCell id="i_EI2Xxlt41yadYSQ0XA-14" value="" style="endArrow=none;html=1;rounded=0;" edge="1" parent="WIyWlLk6GJQsqaUBKTNV-1">
          <mxGeometry width="50" height="50" relative="1" as="geometry">
            <mxPoint x="259" y="444.88" as="sourcePoint" />
            <mxPoint x="329" y="444.88" as="targetPoint" />
          </mxGeometry>
        </mxCell>
        <mxCell id="i_EI2Xxlt41yadYSQ0XA-15" value="POST@register" style="text;html=1;resizable=0;autosize=1;align=center;verticalAlign=middle;points=[];fillColor=none;strokeColor=none;rounded=0;" vertex="1" parent="WIyWlLk6GJQsqaUBKTNV-1">
          <mxGeometry x="320" y="225" width="110" height="30" as="geometry" />
        </mxCell>
        <mxCell id="i_EI2Xxlt41yadYSQ0XA-16" value="GET@todos" style="text;html=1;resizable=0;autosize=1;align=center;verticalAlign=middle;points=[];fillColor=none;strokeColor=none;rounded=0;" vertex="1" parent="WIyWlLk6GJQsqaUBKTNV-1">
          <mxGeometry x="324" y="270" width="90" height="30" as="geometry" />
        </mxCell>
        <mxCell id="i_EI2Xxlt41yadYSQ0XA-17" value="POST@todos" style="text;html=1;resizable=0;autosize=1;align=center;verticalAlign=middle;points=[];fillColor=none;strokeColor=none;rounded=0;" vertex="1" parent="WIyWlLk6GJQsqaUBKTNV-1">
          <mxGeometry x="324" y="390" width="100" height="30" as="geometry" />
        </mxCell>
        <mxCell id="i_EI2Xxlt41yadYSQ0XA-18" value="POST@login" style="text;html=1;resizable=0;autosize=1;align=center;verticalAlign=middle;points=[];fillColor=none;strokeColor=none;rounded=0;" vertex="1" parent="WIyWlLk6GJQsqaUBKTNV-1">
          <mxGeometry x="329" y="430" width="90" height="30" as="geometry" />
        </mxCell>
        <mxCell id="i_EI2Xxlt41yadYSQ0XA-19" value="" style="ellipse;whiteSpace=wrap;html=1;fillColor=#e1d5e7;strokeColor=#9673a6;" vertex="1" parent="WIyWlLk6GJQsqaUBKTNV-1">
          <mxGeometry x="470" y="260" width="150" height="150" as="geometry" />
        </mxCell>
        <mxCell id="i_EI2Xxlt41yadYSQ0XA-20" value="REST&amp;nbsp; API&lt;br&gt;(express)" style="text;html=1;resizable=0;autosize=1;align=center;verticalAlign=middle;points=[];fillColor=none;strokeColor=none;rounded=0;" vertex="1" parent="WIyWlLk6GJQsqaUBKTNV-1">
          <mxGeometry x="505" y="315" width="80" height="40" as="geometry" />
        </mxCell>
        <mxCell id="i_EI2Xxlt41yadYSQ0XA-21" value="" style="endArrow=none;html=1;rounded=0;" edge="1" parent="WIyWlLk6GJQsqaUBKTNV-1">
          <mxGeometry width="50" height="50" relative="1" as="geometry">
            <mxPoint x="430" y="239.66" as="sourcePoint" />
            <mxPoint x="540" y="240" as="targetPoint" />
          </mxGeometry>
        </mxCell>
        <mxCell id="i_EI2Xxlt41yadYSQ0XA-23" value="" style="endArrow=classic;html=1;rounded=0;" edge="1" parent="WIyWlLk6GJQsqaUBKTNV-1" target="i_EI2Xxlt41yadYSQ0XA-19">
          <mxGeometry width="50" height="50" relative="1" as="geometry">
            <mxPoint x="414" y="284.8" as="sourcePoint" />
            <mxPoint x="454" y="284.8" as="targetPoint" />
            <Array as="points">
              <mxPoint x="480" y="280" />
            </Array>
          </mxGeometry>
        </mxCell>
        <mxCell id="i_EI2Xxlt41yadYSQ0XA-25" value="" style="endArrow=classic;html=1;rounded=0;" edge="1" parent="WIyWlLk6GJQsqaUBKTNV-1" target="i_EI2Xxlt41yadYSQ0XA-19">
          <mxGeometry width="50" height="50" relative="1" as="geometry">
            <mxPoint x="424" y="404.8" as="sourcePoint" />
            <mxPoint x="444" y="404.8" as="targetPoint" />
          </mxGeometry>
        </mxCell>
        <mxCell id="i_EI2Xxlt41yadYSQ0XA-26" value="" style="endArrow=classic;html=1;rounded=0;" edge="1" parent="WIyWlLk6GJQsqaUBKTNV-1" target="i_EI2Xxlt41yadYSQ0XA-19">
          <mxGeometry width="50" height="50" relative="1" as="geometry">
            <mxPoint x="419" y="444.8" as="sourcePoint" />
            <mxPoint x="510" y="410" as="targetPoint" />
          </mxGeometry>
        </mxCell>
        <mxCell id="i_EI2Xxlt41yadYSQ0XA-27" value="" style="endArrow=classic;html=1;rounded=0;entryX=0.468;entryY=0.002;entryDx=0;entryDy=0;entryPerimeter=0;" edge="1" parent="WIyWlLk6GJQsqaUBKTNV-1" target="i_EI2Xxlt41yadYSQ0XA-19">
          <mxGeometry width="50" height="50" relative="1" as="geometry">
            <mxPoint x="540" y="240" as="sourcePoint" />
            <mxPoint x="540" y="255" as="targetPoint" />
          </mxGeometry>
        </mxCell>
        <mxCell id="i_EI2Xxlt41yadYSQ0XA-29" value="" style="shape=cylinder3;whiteSpace=wrap;html=1;boundedLbl=1;backgroundOutline=1;size=15;fillColor=#fff2cc;strokeColor=#d6b656;" vertex="1" parent="WIyWlLk6GJQsqaUBKTNV-1">
          <mxGeometry x="780" y="260" width="100" height="145" as="geometry" />
        </mxCell>
        <mxCell id="i_EI2Xxlt41yadYSQ0XA-30" value="MongoDB" style="text;html=1;resizable=0;autosize=1;align=center;verticalAlign=middle;points=[];fillColor=none;strokeColor=none;rounded=0;" vertex="1" parent="WIyWlLk6GJQsqaUBKTNV-1">
          <mxGeometry x="790" y="320" width="80" height="30" as="geometry" />
        </mxCell>
        <mxCell id="i_EI2Xxlt41yadYSQ0XA-31" value="" style="endArrow=classic;startArrow=classic;html=1;rounded=0;entryX=0;entryY=0.5;entryDx=0;entryDy=0;entryPerimeter=0;exitX=1;exitY=0.5;exitDx=0;exitDy=0;" edge="1" parent="WIyWlLk6GJQsqaUBKTNV-1" source="i_EI2Xxlt41yadYSQ0XA-19" target="i_EI2Xxlt41yadYSQ0XA-29">
          <mxGeometry width="50" height="50" relative="1" as="geometry">
            <mxPoint x="650" y="330" as="sourcePoint" />
            <mxPoint x="620" y="270" as="targetPoint" />
          </mxGeometry>
        </mxCell>
      </root>
    </mxGraphModel>
  </diagram>
</mxfile>
